# xmcd
#
# Track frame offsets:
#	150
#	20677
#	36357
#	54607
#	69664
#	85559
#	104559
#	123263
#	142699
#	159941
#
# Disc length: 2379 seconds
#
# Revision: 0
# Processed by: cddbd v1.5.2PL0 Copyright (c) Steve Scherf et al.
# Submitted via: EasyCDDAExtractor 15.3.0.1
#
DISCID=7d09490a
DTITLE=Rey Ruiz - Corazon Arrepentido
DYEAR=2006
DGENRE=Latin
TTITLE0=Dicen (Salsa)
TTITLE1=Corazon Arrepentido (Balada)
TTITLE2=Pa' Saber
TTITLE3=Maldito Amanecer
TTITLE4=Como Quisiera
TTITLE5=Corazon Arrepentido (Salsa)
TTITLE6=Dicen (Balada)
TTITLE7=Creo En Tu Amor
TTITLE8=Vas A Acordarte De Mi
TTITLE9=Mentiras
EXTD=
EXTT0=
EXTT1=
EXTT2=
EXTT3=
EXTT4=
EXTT5=
EXTT6=
EXTT7=
EXTT8=
EXTT9=
PLAYORDER=
